<svg width="938" height="938" version="1.1" xmlns="http://www.w3.org/2000/svg" desc="Created with imagetracer.js version 1.2.6" ><path fill="rgb(0,0,0)" stroke="rgb(0,0,0)" stroke-width="1" opacity="0" d="M 0 0 L 938 0 L 938 938 L 0 938 L 0 0 Z M 603 308 L 602 309 L 593 309 L 576 312 L 549 320 L 522 334 L 509 344 Q 489 361 477 386 L 468 412 L 464 433 L 464 442 L 463 443 L 463 478 L 464 479 L 465 498 L 466 499 Q 464 505 470 503 L 471 502 L 471 490 L 472 489 L 472 481 L 473 480 L 475 461 L 477 457 L 477 453 L 481 439 L 494 410 L 503 396 L 514 382 L 539 363 L 562 351 L 587 343 L 591 343 L 600 340 L 621 338 L 622 337 L 625 338 Q 577 347 547 374 Q 507 408 490 466 L 498 470 L 501 470 L 513 475 L 529 478 L 533 480 L 547 481 L 548 482 L 572 482 L 593 477 Q 609 470 621 459 L 640 436 L 651 418 L 674 374 L 689 352 L 698 342 L 701 340 L 709 331 L 708 326 L 706 323 L 696 319 L 663 311 L 657 311 L 650 309 L 640 309 L 639 308 L 603 308 Z M 319 340 L 318 341 L 297 342 Q 290 345 281 345 L 255 353 L 252 357 L 253 363 L 257 365 L 275 387 L 304 440 L 317 459 L 323 465 Q 322 467 325 466 L 326 469 Q 337 479 352 485 L 370 489 L 398 488 Q 420 484 438 476 Q 428 437 405 412 Q 389 393 368 381 Q 351 371 329 367 L 329 366 L 354 370 L 379 378 Q 405 389 422 410 Q 421 412 424 411 Q 439 430 447 457 L 453 486 L 454 506 L 458 507 L 459 506 L 460 490 L 461 489 L 461 453 L 456 425 L 444 397 L 433 383 L 431 380 L 414 364 L 387 350 L 356 342 L 337 341 L 336 340 L 319 340 Z M 225 540 L 215 544 Q 206 549 203 560 Q 201 577 209 585 Q 215 591 225 593 L 237 593 L 248 588 L 256 579 L 259 568 L 258 560 L 255 553 Q 250 545 241 541 L 225 540 Z M 350 540 L 340 544 Q 331 549 328 560 L 328 574 L 334 585 L 340 589 L 350 593 L 362 593 L 373 588 Q 377 587 376 582 L 370 576 L 367 576 L 360 581 Q 351 582 348 579 L 343 575 L 341 568 L 343 559 Q 346 554 353 552 Q 361 551 365 555 L 368 557 L 369 558 L 375 552 Q 377 553 376 549 Q 371 542 362 540 L 350 540 Z M 589 540 L 576 546 L 573 553 Q 572 561 575 565 L 585 571 L 599 574 Q 602 575 601 579 L 599 581 L 595 582 L 586 581 L 577 577 L 572 587 L 577 590 L 587 593 Q 602 595 609 589 Q 613 586 615 580 Q 616 573 613 570 L 605 563 L 589 559 L 586 557 L 587 553 L 590 552 L 601 552 L 609 555 L 613 546 L 606 541 L 589 540 Z M 272 541 L 272 591 L 274 592 L 285 592 L 285 579 L 295 579 L 301 590 L 304 592 L 317 592 L 317 590 L 307 577 Q 306 574 309 575 L 314 570 L 317 561 L 314 550 Q 310 543 301 541 L 272 541 Z M 390 541 L 390 592 L 403 592 L 403 572 L 423 572 L 423 591 L 425 592 L 436 592 L 437 591 L 437 543 L 436 541 L 425 541 L 423 543 L 423 560 L 403 560 L 403 541 L 390 541 Z M 454 541 L 454 592 L 455 592 L 467 592 L 467 542 L 467 541 L 454 541 Z M 484 541 L 484 592 L 514 592 L 526 587 Q 533 582 535 573 Q 537 558 531 552 Q 525 544 515 541 L 484 541 Z M 628 541 L 628 592 L 641 592 L 641 579 Q 656 581 665 575 L 671 569 L 673 560 L 670 550 Q 666 543 657 541 L 628 541 Z M 704 541 L 700 546 L 681 589 L 682 592 L 694 592 L 697 584 L 699 582 L 720 582 L 722 590 L 725 592 L 737 592 L 737 589 L 720 551 L 718 549 L 717 544 L 715 541 L 704 541 Z M 348 612 L 348 635 L 352 635 L 353 622 L 358 631 L 358 632 L 362 632 L 367 623 L 367 634 Q 368 636 372 635 L 372 613 L 369 612 L 360 626 L 352 614 L 352 612 L 348 612 Z M 400 612 L 389 634 L 393 635 L 395 632 L 396 630 L 406 630 L 408 634 L 408 635 L 412 635 L 412 632 L 403 614 Q 404 611 400 612 Z M 433 612 L 430 613 L 428 617 L 429 623 Q 434 627 441 627 L 440 631 Q 433 632 431 629 Q 426 628 428 633 L 433 635 Q 439 636 443 634 Q 447 633 445 626 L 441 622 L 435 621 L 433 620 L 435 616 Q 439 615 441 617 Q 446 619 444 613 Q 441 611 433 612 Z M 467 612 L 463 614 L 462 617 L 463 623 Q 466 626 473 626 L 475 629 L 474 631 Q 467 632 464 629 L 462 633 L 467 635 Q 473 636 477 634 L 479 631 L 478 625 Q 475 621 469 621 Q 466 620 467 616 L 474 616 L 475 617 Q 480 619 478 613 Q 475 611 467 612 Z M 504 612 L 495 632 Q 493 637 499 635 L 500 632 L 502 630 L 512 630 L 513 634 Q 514 636 518 635 L 509 614 Q 508 611 504 612 Z M 541 612 L 538 614 L 533 621 Q 532 628 535 631 L 541 635 Q 549 637 553 633 L 554 633 L 554 624 L 552 622 Q 549 623 550 630 L 549 631 Q 540 633 538 627 Q 537 618 543 616 L 549 616 L 553 618 L 554 616 Q 551 610 541 612 Z M 574 612 L 574 635 L 591 635 L 591 633 L 590 631 L 578 631 L 578 626 L 588 626 L 589 623 L 588 621 L 578 621 L 578 616 L 590 616 L 591 614 L 590 612 L 574 612 Z " /><path fill="rgb(0,0,0)" stroke="rgb(0,0,0)" stroke-width="1" opacity="0" d="M 227.5 552 L 234.5 552 L 243 558.5 L 245 563.5 L 245 569.5 Q 243.5 576 238.5 579 Q 234.9 581.9 227.5 581 Q 221.8 579.8 219 575.5 L 216 568.5 L 216 563.5 Q 217.5 557 222.5 554 L 227.5 552 Z " /><path fill="rgb(0,0,0)" stroke="rgb(0,0,0)" stroke-width="1" opacity="0" d="M 286.5 552 L 298.5 553 L 302 556.5 L 303 561.5 L 299.5 566 L 297.5 567 L 285 567 L 285 553.5 L 286.5 552 Z " /><path fill="rgb(0,0,0)" stroke="rgb(0,0,0)" stroke-width="1" opacity="0" d="M 498.5 552 L 500.5 553 L 512.5 553 L 518 556.5 Q 522.9 560.6 521 571.5 L 517.5 577 L 511.5 580 L 497 580 L 497 553.5 L 498.5 552 Z " /><path fill="rgb(0,0,0)" stroke="rgb(0,0,0)" stroke-width="1" opacity="0" d="M 641 552 L 649.5 552 L 657 554 L 659 561.5 L 655.5 566 L 653.5 567 L 641 567 L 641 552 Z " /><path fill="rgb(0,0,0)" stroke="rgb(0,0,0)" stroke-width="1" opacity="0" d="M 708.5 557 L 715 570.5 L 703 571 L 708.5 557 Z " /><path fill="rgb(0,0,0)" stroke="rgb(0,0,0)" stroke-width="1" opacity="0" d="M 400 619 Q 403 617.8 402 621.5 L 404 626 L 398 625 L 400 619 Z " /><path fill="rgb(0,0,0)" stroke="rgb(0,0,0)" stroke-width="1" opacity="0" d="M 506.5 619 L 509 624.5 L 506.5 626 L 503 624.5 L 506.5 619 Z " /><path fill="rgb(72,121,238)" stroke="rgb(72,121,238)" stroke-width="1" opacity="0.25098039215686274" d="M 602.5 308 L 638.5 308 L 639.5 309 L 649.5 309 L 656.5 311 L 662.5 311 L 695.5 319 L 705.5 323 L 708 325.5 L 709 330.5 L 700.5 340 L 697.5 342 L 689 351.5 L 674 373.5 L 651 417.5 L 640 435.5 L 620.5 459 Q 608.7 470.2 592.5 477 L 571.5 482 L 547.5 482 L 546.5 481 L 532.5 480 L 528.5 478 L 512.5 475 L 500.5 470 L 497.5 470 L 490 465.5 Q 507 408.5 546.5 374 Q 575.6 348.1 621 338.5 L 614.5 338 L 586.5 343 L 554.5 354 L 532.5 367 L 514 382 L 503 395.5 L 494 409.5 L 481 438.5 L 477 452.5 L 477 456.5 L 475 460.5 L 473 479.5 L 472 480.5 L 472 488.5 L 471 489.5 L 471 501.5 L 469.5 503 Q 463.8 504.8 466 498.5 L 465 497.5 L 464 478.5 L 463 477.5 L 463 442.5 L 464 441.5 L 464 432.5 L 468 411.5 L 477 385.5 Q 488.8 360.8 508.5 344 L 521.5 334 L 548.5 320 L 575.5 312 L 592.5 309 L 601.5 309 L 602.5 308 Z M 607 309 L 606 310 L 595 310 L 594 311 L 577 313 L 550 321 Q 527 330 511 344 Q 489 362 477 389 L 468 417 L 466 434 L 465 435 L 465 445 L 464 446 L 464 475 L 465 476 L 466 497 L 467 498 Q 465 503 469 502 L 470 501 L 470 488 L 471 487 L 473 466 L 482 433 Q 492 407 508 388 Q 530 362 564 349 L 590 341 L 612 337 L 630 336 L 631 335 L 648 336 L 623 339 L 598 346 Q 570 356 550 373 Q 508 408 491 466 L 514 474 L 535 479 L 549 480 L 550 481 L 570 481 L 585 478 Q 605 473 618 460 Q 632 446 643 429 L 671 377 L 683 358 L 708 330 L 707 327 L 705 324 L 695 320 L 667 313 L 649 311 L 648 310 L 637 310 L 636 309 L 607 309 Z M 622 337 L 622 338 L 625 338 L 622 337 Z " /><path fill="rgb(72,121,238)" stroke="rgb(72,121,238)" stroke-width="1" opacity="0.25098039215686274" d="M 318.5 340 L 335.5 340 L 336.5 341 L 355.5 342 L 386.5 350 L 413.5 364 L 431 379.5 L 433 382.5 L 444 396.5 L 456 424.5 L 461 452.5 L 461 488.5 L 460 489.5 L 459 505.5 L 457.5 507 L 454 505.5 L 453 485.5 L 447 456.5 Q 438.8 429.9 424 411 Q 421.3 412.1 422 409.5 Q 404.9 389.1 378.5 378 L 353.5 370 L 338.5 367 L 331.5 367 L 331.5 368 Q 352.2 371.8 367.5 381 Q 389.3 393.2 405 411.5 Q 427.5 437.5 438 475.5 Q 420 484 397.5 488 L 369.5 489 L 351.5 485 Q 336.6 478.9 326 468.5 L 324.5 466 Q 322.3 466.8 323 464.5 L 317 458.5 L 304 439.5 L 275 386.5 L 256.5 365 L 253 362.5 L 252 356.5 L 254.5 353 L 280.5 345 Q 290 345 296.5 342 L 317.5 341 L 318.5 340 Z M 326 341 L 325 342 L 299 343 L 283 346 L 258 353 L 253 357 L 253 361 Q 267 372 277 388 L 306 441 L 321 462 Q 330 473 344 480 L 356 485 L 372 488 L 388 488 L 389 487 L 407 485 L 428 479 L 437 475 Q 426 439 405 414 Q 385 389 355 376 L 326 367 L 307 365 L 306 363 L 333 365 L 363 371 Q 391 380 412 397 Q 432 415 443 442 L 452 472 L 454 491 L 455 492 L 455 505 L 457 506 L 458 505 L 459 488 L 460 487 L 460 455 L 455 426 L 446 403 L 433 384 Q 415 362 386 351 L 370 346 L 354 343 L 329 342 L 326 341 Z M 329 366 L 329 367 L 331 367 L 329 366 Z " /><path fill="rgb(72,121,238)" stroke="rgb(72,121,238)" stroke-width="1" opacity="0.25098039215686274" d="M 224.5 540 L 240.5 541 Q 249.9 544.6 255 552.5 L 258 559.5 L 259 567.5 L 256 578.5 L 247.5 588 L 236.5 593 L 224.5 593 Q 214.8 590.7 209 584.5 Q 200.5 577.5 203 559.5 Q 206 549 214.5 544 L 224.5 540 Z M 228 541 L 220 543 L 213 547 Q 206 552 204 562 L 204 572 L 209 583 Q 215 590 227 592 Q 241 593 249 586 Q 254 581 257 573 Q 259 557 252 551 Q 245 541 228 541 Z " /><path fill="rgb(72,121,238)" stroke="rgb(72,121,238)" stroke-width="1" opacity="0.25098039215686274" d="M 349.5 540 L 361.5 540 Q 370.9 542.1 376 548.5 Q 377.5 552.9 374.5 552 L 368.5 558 L 367.5 557 L 364.5 555 Q 361.3 550.7 352.5 552 Q 346 553.5 343 558.5 L 341 567.5 L 343 574.5 L 347.5 579 Q 351.2 582.3 359.5 581 L 366.5 576 L 369.5 576 L 376 581.5 Q 376.8 587.3 372.5 588 L 361.5 593 L 349.5 593 L 339.5 589 L 334 585 L 328 573.5 L 328 559.5 Q 331 549 339.5 544 L 349.5 540 Z M 353 541 L 345 543 L 338 547 Q 331 552 329 562 L 329 572 L 334 583 Q 340 590 352 592 Q 365 593 372 587 L 375 583 L 369 577 L 361 582 Q 351 584 347 580 Q 342 576 340 570 Q 339 561 343 557 Q 346 552 352 551 Q 364 549 368 556 L 374 552 L 375 550 Q 369 540 353 541 Z " /><path fill="rgb(72,121,238)" stroke="rgb(72,121,238)" stroke-width="1" opacity="0.25098039215686274" d="M 588.5 540 L 605.5 541 L 613 545.5 L 608.5 555 L 600.5 552 L 589.5 552 L 587 553 L 586 556.5 L 588.5 559 L 604.5 563 L 613 569.5 Q 616 572.5 615 579.5 Q 613.5 586 608.5 589 Q 601.5 595 586.5 593 L 576.5 590 L 572 586.5 L 576.5 577 L 585.5 581 L 594.5 582 L 598.5 581 L 601 578.5 Q 601.5 574.5 598.5 574 L 584.5 571 L 575 564.5 Q 571.7 560.8 573 552.5 L 576 546 L 588.5 540 Z M 591 541 L 580 545 L 574 554 L 575 563 L 584 569 L 600 573 Q 603 574 602 580 L 597 583 L 585 582 L 578 578 L 573 586 L 578 589 L 589 592 L 597 592 L 607 589 Q 612 586 614 579 Q 614 572 611 569 L 607 565 L 588 560 Q 584 559 585 555 L 592 550 Q 602 550 608 554 L 611 546 Q 604 540 591 541 Z " /><path fill="rgb(72,121,238)" stroke="rgb(72,121,238)" stroke-width="1" opacity="0.25098039215686274" d="M 272 541 L 300.5 541 Q 309.6 542.9 314 549.5 L 317 560.5 L 314 569.5 L 308.5 575 Q 306.3 574.3 307 576.5 L 317 589.5 L 317 592 L 303.5 592 L 301 589.5 L 295 579 L 285 579 L 285 592 L 273.5 592 L 272 590.5 L 272 541 Z M 273 542 L 273 591 L 284 591 L 284 577 L 295 577 L 305 591 L 316 591 L 307 579 L 306 574 L 310 573 L 315 565 Q 316 555 313 551 L 308 545 L 299 542 L 273 542 Z " /><path fill="rgb(72,121,238)" stroke="rgb(72,121,238)" stroke-width="1" opacity="0.25098039215686274" d="M 390 541 L 403 541 L 403 560 L 423 560 L 423 542.5 L 424.5 541 L 435.5 541 L 437 542.5 L 437 590.5 L 435.5 592 L 424.5 592 L 423 590.5 L 423 572 L 403 572 L 403 592 L 390 592 L 390 541 Z M 391 542 L 391 591 L 402 591 L 402 571 L 424 571 L 425 573 L 425 588 L 424 590 L 426 591 L 435 591 L 436 590 L 436 544 L 435 542 L 425 542 L 425 560 L 424 561 L 402 561 L 402 542 L 391 542 Z " /><path fill="rgb(72,121,238)" stroke="rgb(72,121,238)" stroke-width="1" opacity="0.25098039215686274" d="M 454 541 L 466.5 541 L 467 541.5 L 467 592 L 454.5 592 L 454 591.5 L 454 541 Z M 455 542 L 455 591 L 456 591 L 466 591 L 466 543 L 466 542 L 455 542 Z " /><path fill="rgb(72,121,238)" stroke="rgb(72,121,238)" stroke-width="1" opacity="0.25098039215686274" d="M 484 541 L 514.5 541 Q 525.4 543.6 531 551.5 Q 536.8 558.2 535 572.5 Q 532.9 582.4 525.5 587 L 513.5 592 L 484 592 L 484 541 Z M 485 542 L 485 591 L 512 591 L 520 589 L 525 586 Q 532 581 534 571 L 534 563 L 530 553 Q 525 546 517 543 L 512 542 L 485 542 Z " /><path fill="rgb(72,121,238)" stroke="rgb(72,121,238)" stroke-width="1" opacity="0.25098039215686274" d="M 628 541 L 656.5 541 Q 665.8 542.8 670 549.5 L 673 559.5 L 671 568.5 L 664.5 575 Q 655.9 580.7 641 579 L 641 592 L 628 592 L 628 541 Z M 629 542 L 629 591 L 640 591 L 640 577 L 658 577 L 666 573 L 671 565 Q 672 555 669 551 L 664 545 L 655 542 L 629 542 Z " /><path fill="rgb(72,121,238)" stroke="rgb(72,121,238)" stroke-width="1" opacity="0.25098039215686274" d="M 703.5 541 L 714.5 541 L 717 543.5 L 718 548.5 L 720 550.5 L 737 588.5 L 737 592 L 724.5 592 L 722 589.5 L 720 582 L 698.5 582 L 697 583.5 L 693.5 592 L 681.5 592 L 681 588.5 L 700 545.5 L 703.5 541 Z M 703 542 L 682 590 L 683 591 L 693 591 L 696 583 L 699 580 L 720 580 L 723 589 L 726 591 L 736 591 L 715 544 L 714 542 L 703 542 Z " /><path fill="rgb(72,121,238)" stroke="rgb(72,121,238)" stroke-width="1" opacity="0.25098039215686274" d="M 226.5 551 Q 239.4 549.1 243 556.5 Q 247.3 560.7 246 570.5 L 239.5 580 Q 235.2 583.7 225.5 582 L 218 576.5 Q 214.1 572.4 215 563.5 Q 216.6 556.5 221.5 553 L 226.5 551 Z M 228 552 L 223 554 Q 218 557 216 564 L 216 569 L 219 576 Q 222 580 228 581 Q 235 582 239 579 Q 243 576 245 570 L 245 564 L 243 559 L 235 552 L 228 552 Z " /><path fill="rgb(72,121,238)" stroke="rgb(72,121,238)" stroke-width="1" opacity="0.25098039215686274" d="M 284 551 L 296.5 551 L 303 555.5 L 304 562.5 L 300.5 567 L 298.5 568 L 284 568 L 284 551 Z M 287 552 L 285 554 L 285 567 L 298 567 L 300 566 L 303 562 L 302 557 L 299 553 L 287 552 Z " /><path fill="rgb(72,121,238)" stroke="rgb(72,121,238)" stroke-width="1" opacity="0.25098039215686274" d="M 496 551 L 513.5 552 L 521 558.5 L 523 568.5 Q 521.6 576.6 515.5 580 Q 508.1 583.7 496 582 L 496 551 Z M 499 552 L 497 554 L 497 580 L 512 580 L 518 577 L 521 572 Q 523 561 518 557 L 513 553 L 501 553 L 499 552 Z " /><path fill="rgb(72,121,238)" stroke="rgb(72,121,238)" stroke-width="1" opacity="0.25098039215686274" d="M 640 551 L 652.5 551 L 659 555.5 L 660 562.5 L 656.5 567 L 654.5 568 L 640 568 L 640 551 Z M 641 552 L 641 567 L 654 567 L 656 566 L 659 562 L 657 554 L 650 552 L 641 552 Z " /><path fill="rgb(72,121,238)" stroke="rgb(72,121,238)" stroke-width="1" opacity="0.25098039215686274" d="M 708.5 554 Q 714.2 561.4 716 572 L 701.5 572 L 701 570.5 L 708.5 554 Z M 709 557 L 703 571 L 715 571 L 709 557 Z " /><path fill="rgb(72,121,238)" stroke="rgb(72,121,238)" stroke-width="1" opacity="0.25098039215686274" d="M 348 612 L 352 612 L 352 613.5 L 359.5 626 L 368.5 612 L 372 612.5 L 372 635 Q 368.2 636 367 633.5 L 366.5 623 L 362 632 L 358 632 L 358 630.5 L 352.5 622 L 352 635 L 348 634.5 L 348 612 Z M 349 613 L 349 634 L 351 634 L 352 618 L 358 630 L 361 631 L 367 620 L 369 619 L 369 634 L 371 634 L 371 614 L 370 613 L 361 627 Q 362 629 359 628 L 352 615 L 349 613 Z " /><path fill="rgb(72,121,238)" stroke="rgb(72,121,238)" stroke-width="1" opacity="0.25098039215686274" d="M 399.5 612 Q 403.9 610.5 403 613.5 L 412 631.5 L 412 635 L 408 635 L 408 633.5 L 405.5 630 L 395.5 630 L 395 631.5 L 392.5 635 L 389 633.5 L 399.5 612 Z M 401 613 L 391 632 L 392 634 L 394 630 L 396 628 L 406 628 L 409 633 Q 408 635 411 634 L 402 615 Q 403 612 401 613 Z " /><path fill="rgb(72,121,238)" stroke="rgb(72,121,238)" stroke-width="1" opacity="0.25098039215686274" d="M 432.5 612 Q 440.7 610.9 444 613 Q 446.2 618.6 440.5 617 Q 439.2 614.8 434.5 616 L 433 619.5 L 434.5 621 L 440.5 622 L 445 625.5 Q 446.5 632.5 442.5 634 Q 439.3 636.3 432.5 635 L 428 633 Q 425.9 627.8 430.5 629 Q 432.8 632.2 439.5 631 L 441 627 Q 433.8 626.5 429 622.5 L 428 616.5 L 430 613 L 432.5 612 Z M 434 613 L 432 614 L 429 618 L 430 622 Q 433 625 440 625 Q 443 626 442 631 L 440 632 Q 432 633 430 630 L 429 632 L 434 634 L 442 633 Q 445 632 444 627 Q 441 622 434 622 L 431 620 Q 431 616 434 615 Q 440 613 442 616 Q 444 617 443 614 Q 440 612 434 613 Z " /><path fill="rgb(72,121,238)" stroke="rgb(72,121,238)" stroke-width="1" opacity="0.25098039215686274" d="M 466.5 612 Q 474.7 610.9 478 613 Q 480.2 618.6 474.5 617 L 473.5 616 L 467 616 Q 466 619.8 468.5 621 Q 475 621 478 624.5 L 479 630.5 L 476.5 634 Q 473.3 636.3 466.5 635 L 462 632.5 L 463.5 629 Q 467 632.2 474 631 L 475 628.5 L 472.5 626 Q 466 626 463 622.5 L 462 616.5 L 463 614 L 466.5 612 Z M 468 613 L 466 614 L 463 618 L 464 622 Q 467 625 474 625 Q 477 626 476 631 L 474 632 Q 466 633 464 630 L 463 632 L 468 634 L 476 633 Q 479 632 478 627 Q 475 622 468 622 L 465 620 Q 464 616 468 615 Q 474 613 476 616 Q 478 617 477 614 Q 474 612 468 613 Z " /><path fill="rgb(72,121,238)" stroke="rgb(72,121,238)" stroke-width="1" opacity="0.25098039215686274" d="M 504 612 Q 507.8 611 509 613.5 L 518 635 Q 514.2 636 513 633.5 L 512 630 L 501.5 630 L 500 631.5 L 499 635 Q 493.4 637.2 495 631.5 L 504 612 Z M 505 613 L 496 633 Q 495 635 498 634 L 499 631 L 502 628 L 512 628 L 514 633 L 516 634 L 508 615 L 505 613 Z " /><path fill="rgb(72,121,238)" stroke="rgb(72,121,238)" stroke-width="1" opacity="0.25098039215686274" d="M 540.5 612 Q 551 610 554 615.5 L 552.5 618 L 548.5 616 L 542.5 616 Q 536.5 617.5 538 626.5 Q 539.5 632.5 548.5 631 L 550 629.5 Q 548.5 623.5 551.5 622 L 554 623.5 L 554 632.5 L 552.5 633 Q 549.3 636.8 540.5 635 L 535 630.5 Q 532 627.5 533 620.5 L 537.5 614 L 540.5 612 Z M 543 613 L 540 614 Q 535 617 534 623 L 536 630 L 543 634 L 552 633 L 553 632 L 553 624 L 551 625 L 551 631 L 549 632 L 541 631 Q 535 629 537 620 L 543 615 L 551 616 Q 552 618 553 616 Q 550 612 543 613 Z " /><path fill="rgb(72,121,238)" stroke="rgb(72,121,238)" stroke-width="1" opacity="0.25098039215686274" d="M 574 612 L 589.5 612 L 591 613.5 L 589.5 616 L 578 616 L 578 621 L 587.5 621 L 589 622.5 L 587.5 626 L 578 626 L 578 631 L 589.5 631 L 591 632.5 L 590.5 635 L 574 635 L 574 612 Z M 575 613 L 575 634 L 590 634 L 589 632 L 577 632 L 577 624 L 588 624 L 587 622 L 577 622 L 577 615 L 589 615 L 589 613 L 575 613 Z " /><path fill="rgb(72,121,238)" stroke="rgb(72,121,238)" stroke-width="1" opacity="0.25098039215686274" d="M 400.5 616 L 405 623.5 L 405 627 L 396.5 627 L 396 624.5 L 400.5 616 Z M 400 619 L 398 625 L 404 626 L 402 622 Q 403 618 400 619 Z " /><path fill="rgb(72,121,238)" stroke="rgb(72,121,238)" stroke-width="1" opacity="0.25098039215686274" d="M 506.5 616 L 511 627 L 502 627 L 502 623.5 L 506.5 616 Z M 507 619 L 503 625 L 507 626 L 509 625 L 507 619 Z " /><path fill="rgb(67,120,236)" stroke="rgb(67,120,236)" stroke-width="1" opacity="0.9882352941176471" d="M 606.5 309 L 635.5 309 L 636.5 310 L 647.5 310 L 648.5 311 L 666.5 313 L 694.5 320 L 704.5 324 L 707 326.5 L 708 329.5 L 683 357.5 L 671 376.5 L 643 428.5 Q 632.4 446.4 617.5 460 Q 604.6 472.6 584.5 478 L 569.5 481 L 549.5 481 L 548.5 480 L 534.5 479 L 513.5 474 L 491 466 Q 508.2 407.9 549.5 373 Q 569.9 355.9 597.5 346 L 622.5 339 L 648 335.5 L 630.5 335 L 629.5 336 L 611.5 337 L 589.5 341 L 563.5 349 Q 529.9 362.4 508 387.5 Q 491.5 406.5 482 432.5 L 473 465.5 L 471 486.5 L 470 487.5 L 470 500.5 L 468.5 502 Q 465.1 502.9 467 497.5 L 466 496.5 L 465 475.5 L 464 474.5 L 464 445.5 L 465 444.5 L 465 434.5 L 466 433.5 L 468 416.5 L 477 388.5 Q 489.1 361.6 510.5 344 Q 527.2 329.7 549.5 321 L 576.5 313 L 593.5 311 L 594.5 310 L 605.5 310 L 606.5 309 Z " /><path fill="rgb(67,120,236)" stroke="rgb(67,120,236)" stroke-width="1" opacity="0.9882352941176471" d="M 325.5 341 L 328.5 342 L 353.5 343 L 369.5 346 L 385.5 351 Q 414.6 361.9 433 383.5 L 446 402.5 L 455 425.5 L 460 454.5 L 460 486.5 L 459 487.5 L 458 504.5 L 456.5 506 L 455 504.5 L 455 491.5 L 454 490.5 L 452 471.5 L 443 441.5 Q 431.9 414.6 411.5 397 Q 391.5 379.5 362.5 371 L 332.5 365 L 305.5 363 L 306.5 365 L 325.5 367 L 354.5 376 Q 385.1 389.4 405 413.5 Q 426.3 438.7 437 474.5 L 427.5 479 L 406.5 485 L 388.5 487 L 387.5 488 L 371.5 488 L 355.5 485 L 343.5 480 Q 330.4 472.6 321 461.5 L 306 440.5 L 277 387.5 Q 267 372 253 360.5 L 253 356.5 L 257.5 353 L 282.5 346 L 298.5 343 L 324.5 342 L 325.5 341 Z " /><path fill="rgb(67,120,236)" stroke="rgb(67,120,236)" stroke-width="1" opacity="0.9882352941176471" d="M 227.5 541 Q 244.7 540.8 252 550.5 Q 259 557 257 572.5 Q 254.5 581 248.5 586 Q 241.1 592.6 226.5 592 Q 215.2 589.8 209 582.5 L 204 571.5 L 204 561.5 Q 206.1 552.1 212.5 547 L 219.5 543 L 227.5 541 Z M 227 551 L 222 553 Q 217 557 215 564 Q 214 572 218 577 L 226 582 Q 235 584 240 580 L 246 571 Q 247 561 243 557 Q 239 549 227 551 Z " /><path fill="rgb(67,120,236)" stroke="rgb(67,120,236)" stroke-width="1" opacity="0.9882352941176471" d="M 352.5 541 Q 368.5 540.5 375 549.5 L 373.5 552 L 367.5 556 Q 363.9 549.1 351.5 551 Q 345.8 552.3 343 556.5 Q 339.1 560.6 340 569.5 Q 341.6 576.4 346.5 580 Q 350.8 583.7 360.5 582 L 368.5 577 L 375 582.5 L 371.5 587 Q 364.7 592.7 351.5 592 Q 340.2 589.8 334 582.5 L 329 571.5 L 329 561.5 Q 331.1 552.1 337.5 547 L 344.5 543 L 352.5 541 Z " /><path fill="rgb(67,120,236)" stroke="rgb(67,120,236)" stroke-width="1" opacity="0.9882352941176471" d="M 590.5 541 Q 603.8 540.2 611 545.5 L 607.5 554 Q 601.9 549.6 591.5 550 L 585 554.5 Q 584.3 559.3 587.5 560 L 606.5 565 L 611 568.5 Q 614.3 571.7 614 578.5 Q 612.2 585.7 606.5 589 L 596.5 592 L 588.5 592 L 577.5 589 L 573 585.5 L 577.5 578 L 584.5 582 L 596.5 583 L 602 579.5 Q 603 574 599.5 573 L 583.5 569 L 575 562.5 L 574 553.5 L 579.5 545 L 590.5 541 Z " /><path fill="rgb(67,120,236)" stroke="rgb(67,120,236)" stroke-width="1" opacity="0.9882352941176471" d="M 273 542 L 298.5 542 L 307.5 545 L 313 550.5 Q 316.3 555.2 315 564.5 L 309.5 573 L 306 574 L 307 578.5 L 316 590.5 L 304.5 591 L 294.5 577 L 284 577 L 284 591 L 273 591 L 273 542 Z M 284 551 L 284 568 L 299 568 L 301 567 L 304 563 L 303 556 L 297 551 L 284 551 Z " /><path fill="rgb(67,120,236)" stroke="rgb(67,120,236)" stroke-width="1" opacity="0.9882352941176471" d="M 391 542 L 402 542 L 402 561 L 423.5 561 L 425 559.5 L 425 542 L 434.5 542 L 436 543.5 L 436 589.5 L 434.5 591 L 425.5 591 L 424 589.5 L 425 587.5 L 425 572.5 L 423.5 571 L 402 571 L 402 591 L 391 591 L 391 542 Z " /><path fill="rgb(67,120,236)" stroke="rgb(67,120,236)" stroke-width="1" opacity="0.9882352941176471" d="M 455 542 L 465.5 542 L 466 542.5 L 466 591 L 455.5 591 L 455 590.5 L 455 542 Z " /><path fill="rgb(67,120,236)" stroke="rgb(67,120,236)" stroke-width="1" opacity="0.9882352941176471" d="M 485 542 L 511.5 542 L 516.5 543 Q 525.2 545.8 530 552.5 L 534 562.5 L 534 570.5 Q 532.3 581.3 524.5 586 L 519.5 589 L 511.5 591 L 485 591 L 485 542 Z M 496 551 L 496 582 Q 508 584 516 580 Q 522 577 523 569 L 521 559 L 514 552 L 496 551 Z " /><path fill="rgb(67,120,236)" stroke="rgb(67,120,236)" stroke-width="1" opacity="0.9882352941176471" d="M 629 542 L 654.5 542 L 663.5 545 L 669 550.5 Q 672.3 555.2 671 564.5 L 665.5 573 L 657.5 577 L 640 577 L 640 591 L 629 591 L 629 542 Z M 640 551 L 640 568 L 655 568 L 657 567 L 660 563 L 659 556 L 653 551 L 640 551 Z " /><path fill="rgb(67,120,236)" stroke="rgb(67,120,236)" stroke-width="1" opacity="0.9882352941176471" d="M 703 542 L 713.5 542 L 715 543.5 L 736 591 L 725.5 591 L 723 588.5 L 719.5 580 L 698.5 580 L 696 582.5 L 692.5 591 L 682.5 591 L 682 589.5 L 703 542 Z M 709 554 L 701 571 L 702 572 L 716 572 Q 714 561 709 554 Z " /><path fill="rgb(67,120,236)" stroke="rgb(67,120,236)" stroke-width="1" opacity="0.9882352941176471" d="M 349 613 L 352 614.5 L 359 628 Q 361.7 629.1 361 626.5 L 369.5 613 L 371 613.5 L 371 634 L 369 633.5 L 369 618.5 L 367 619.5 L 361 631 L 358 629.5 L 351.5 618 L 351 634 L 349 633.5 L 349 613 Z " /><path fill="rgb(67,120,236)" stroke="rgb(67,120,236)" stroke-width="1" opacity="0.9882352941176471" d="M 400.5 613 Q 402.8 612.3 402 614.5 L 411 634 Q 408.3 635.1 409 632.5 L 405.5 628 L 395.5 628 L 394 629.5 L 391.5 634 L 391 631.5 L 400.5 613 Z M 401 616 L 396 625 L 397 627 L 405 627 L 405 624 L 401 616 Z " /><path fill="rgb(67,120,236)" stroke="rgb(67,120,236)" stroke-width="1" opacity="0.9882352941176471" d="M 433.5 613 Q 440.3 612.1 443 614 Q 444.1 616.7 441.5 616 Q 439.8 613.3 433.5 615 Q 430.5 615.5 431 619.5 L 433.5 622 Q 441 622 444 626.5 Q 445 632 441.5 633 L 433.5 634 L 429 631.5 L 429.5 630 Q 432.1 633.4 439.5 632 L 442 631 Q 443 626.3 439.5 625 Q 433 625 430 621.5 L 429 617.5 L 431.5 614 L 433.5 613 Z " /><path fill="rgb(67,120,236)" stroke="rgb(67,120,236)" stroke-width="1" opacity="0.9882352941176471" d="M 467.5 613 Q 474.3 612.1 477 614 Q 478.1 616.7 475.5 616 Q 473.8 613.3 467.5 615 Q 464.5 615.5 465 619.5 L 467.5 622 Q 475 622 478 626.5 Q 479 632 475.5 633 L 467.5 634 L 463 631.5 L 463.5 630 Q 466.1 633.4 473.5 632 L 476 631 Q 477 626.3 473.5 625 Q 467 625 464 621.5 L 463 617.5 L 465.5 614 L 467.5 613 Z " /><path fill="rgb(67,120,236)" stroke="rgb(67,120,236)" stroke-width="1" opacity="0.9882352941176471" d="M 505 613 L 508 614.5 L 516 633.5 L 514 632.5 L 511.5 628 L 501.5 628 L 499 630.5 L 498 634 Q 495.3 635.1 496 632.5 L 505 613 Z M 507 616 L 502 624 L 502 627 L 511 627 L 507 616 Z " /><path fill="rgb(67,120,236)" stroke="rgb(67,120,236)" stroke-width="1" opacity="0.9882352941176471" d="M 542.5 613 Q 550.1 611.9 553 615.5 Q 551.8 618.3 550.5 616 L 542.5 615 L 537 619.5 Q 535 629 540.5 631 L 548.5 632 L 551 631 L 551 624.5 L 553 624 L 553 631.5 L 551.5 633 L 542.5 634 L 536 629.5 L 534 622.5 Q 535.3 616.8 539.5 614 L 542.5 613 Z " /><path fill="rgb(67,120,236)" stroke="rgb(67,120,236)" stroke-width="1" opacity="0.9882352941176471" d="M 575 613 L 588.5 613 L 589 615 L 577 615 L 577 622 L 586.5 622 L 588 623.5 L 577 624 L 577 632 L 588.5 632 L 589.5 634 L 575 634 L 575 613 Z " /></svg>