<?xml version="1.0" encoding="UTF-8"?>
<svg version="1.1" xmlns="http://www.w3.org/2000/svg" width="938" height="938">
<path d="M0 0 C1.13832779 0.00090637 1.13832779 0.00090637 2.2996521 0.00183105 C13.84929931 0.02680755 25.20199853 0.33770262 36.625 2.1875 C37.4411377 2.31640625 38.25727539 2.4453125 39.09814453 2.578125 C77.8315223 8.87931845 77.8315223 8.87931845 88.41137695 16.46899414 C89.625 18.1875 89.625 18.1875 89.51098633 20.66308594 C88.5351925 23.44338578 87.61021383 24.61084167 85.44921875 26.578125 C84.79195801 27.1961499 84.13469727 27.8141748 83.45751953 28.45092773 C82.74966309 29.10649658 82.04180664 29.76206543 81.3125 30.4375 C64.01017962 47.12119208 53.18607068 68.3321677 41.94238281 89.31005859 C13.79124284 141.77493382 13.79124284 141.77493382 -9.375 158.1875 C-10.10460937 158.71730469 -10.83421875 159.24710938 -11.5859375 159.79296875 C-16.84175595 163.28189943 -22.37289489 165.42685009 -28.3125 167.4375 C-29.03953125 167.68387207 -29.7665625 167.93024414 -30.515625 168.18408203 C-61.80857753 178.23756834 -98.13050556 170.55765357 -127.375 157.1875 C-125.54851126 149.86235555 -123.27850171 142.97554229 -120.25 136.0625 C-119.85675537 135.15870605 -119.46351074 134.25491211 -119.05834961 133.32373047 C-99.89915583 89.93996181 -68.74182404 56.04523784 -24.26953125 38.0546875 C-9.89706615 32.59377763 5.38948406 29.16286345 20.625 27.1875 C13.39608225 27.00978828 6.41633362 27.5055184 -0.75 28.4375 C-1.79438232 28.57244873 -2.83876465 28.70739746 -3.91479492 28.84643555 C-45.21489771 34.38344135 -87.25703541 49.23327164 -113.52587891 83.41918945 C-137.71198793 115.85835851 -145.09237804 152.77712739 -148.375 192.1875 C-149.365 192.5175 -150.355 192.8475 -151.375 193.1875 C-159.00609861 170.29420416 -156.36222206 135.44700948 -151.375 112.1875 C-151.1581958 111.09646973 -151.1581958 111.09646973 -150.93701172 109.98339844 C-145.77914223 84.13121979 -134.48907999 62.39845335 -116.375 43.1875 C-115.71242188 42.44886719 -115.04984375 41.71023438 -114.3671875 40.94921875 C-91.54853769 16.52545479 -57.32128574 6.16980601 -25.375 1.1875 C-24.6840625 1.07929932 -23.993125 0.97109863 -23.28125 0.85961914 C-15.57018479 -0.16944087 -7.76471886 -0.01136624 0 0 Z " fill="#4579ED" transform="translate(618.375,308.8125)"/>
<path d="M0 0 C0.90087845 -0.00570007 1.8017569 -0.01140015 2.72993469 -0.01727295 C4.63871092 -0.02669814 6.54750324 -0.03324705 8.45629883 -0.03710938 C11.30906734 -0.04669288 14.16107593 -0.07768774 17.01367188 -0.109375 C32.46624577 -0.19942242 47.72498536 1.1370675 62.55078125 5.765625 C63.35829834 6.01393066 64.16581543 6.26223633 64.99780273 6.51806641 C79.1528486 11.09544025 93.28071971 17.52017622 104.67578125 27.203125 C105.52011719 27.91082031 106.36445313 28.61851562 107.234375 29.34765625 C130.88208202 49.89992521 143.93965912 78.1812471 146.67578125 109.203125 C147.67029881 127.45966449 147.41381305 146.11255776 144.67578125 164.203125 C143.68578125 164.203125 142.69578125 164.203125 141.67578125 164.203125 C141.64137939 163.59654053 141.60697754 162.98995605 141.5715332 162.36499023 C139.51885907 128.43062706 131.95543745 94.84356799 109.67578125 68.203125 C108.99257813 67.3575 108.309375 66.511875 107.60546875 65.640625 C84.50453268 38.36276692 47.05696592 26.5446062 12.5390625 23.3515625 C8.58362349 23.14650563 4.63555523 23.17382951 0.67578125 23.203125 C1.61707886 23.37533569 1.61707886 23.37533569 2.57739258 23.55102539 C42.32907143 30.96260082 76.74069988 48.36133766 100.1875 82.3984375 C109.76911671 96.82101837 119.60967459 114.26635 123.67578125 131.203125 C123.34578125 132.193125 123.01578125 133.183125 122.67578125 134.203125 C120.58129883 135.23046875 120.58129883 135.23046875 117.8203125 136.140625 C116.81178223 136.47698975 115.80325195 136.81335449 114.76416016 137.15991211 C113.68312012 137.50417236 112.60208008 137.84843262 111.48828125 138.203125 C109.84738525 138.73595093 109.84738525 138.73595093 108.17333984 139.27954102 C100.40935715 141.75700433 92.73689758 143.92568034 84.67578125 145.203125 C83.8971875 145.33203125 83.11859375 145.4609375 82.31640625 145.59375 C79.76134944 145.92855055 77.25134475 146.08910266 74.67578125 146.203125 C73.97710937 146.23567383 73.2784375 146.26822266 72.55859375 146.30175781 C49.6073351 147.23297691 31.05465089 142.01504738 13.67578125 126.203125 C13.05445313 125.66300781 12.433125 125.12289062 11.79296875 124.56640625 C-1.85415579 111.96661918 -10.54938276 93.63372198 -19.08929443 77.43884277 C-32.74658033 51.00182469 -32.74658033 51.00182469 -51.48046875 28.1171875 C-52.0321875 27.58150146 -52.58390625 27.04581543 -53.15234375 26.49389648 C-54.24305374 25.44794255 -55.3468185 24.41538585 -56.46484375 23.39868164 C-58.79258598 21.1965505 -60.21265205 19.70444117 -60.91796875 16.53515625 C-60.32421875 14.203125 -60.32421875 14.203125 -58.77734375 12.5390625 C-55.65592639 10.83918235 -52.47628001 9.79200895 -49.07421875 8.828125 C-48.35129639 8.61897461 -47.62837402 8.40982422 -46.88354492 8.19433594 C-36.50861133 5.29458359 -25.9055436 3.1990421 -15.32421875 1.203125 C-14.41849121 1.02136719 -13.51276367 0.83960938 -12.57958984 0.65234375 C-8.37286392 0.0718446 -4.24199197 0.02120933 0 0 Z " fill="#4579ED" transform="translate(313.32421875,341.796875)"/>
<path d="M0 0 C5.45155881 3.13493445 9.03909775 8.10074555 11 14 C12.23208558 22.45785066 11.9146924 29.78840609 6.9140625 36.91015625 C1.96967369 42.30862159 -4.60017132 46.38579573 -11.91015625 47.40625 C-20.52011216 47.66230817 -26.92091185 46.02010299 -34 41 C-39.68114328 35.34091941 -42.28450633 29.33066033 -42.5 21.3125 C-42.37252529 14.15142064 -40.81230468 9.34264029 -36 4 C-24.80380706 -5.428373 -13.1110625 -6.3772208 0 0 Z " fill="#497CED" transform="translate(246,545)"/>
<path d="M0 0 C4.434375 -0.061875 8.86875 -0.12375 13.4375 -0.1875 C14.81736084 -0.21481201 16.19722168 -0.24212402 17.61889648 -0.27026367 C27.95868345 -0.33977861 35.64565222 0.75818476 43.26953125 8.0625 C48.46519156 13.87976301 49.68784932 19.27648875 49.375 27.0390625 C48.4031651 34.71250887 45.15160672 39.48158575 39.390625 44.4921875 C31.14789823 49.69103151 23.50746506 49.36767837 14 49.1875 C9.38 49.125625 4.76 49.06375 0 49 C0 32.83 0 16.66 0 0 Z " fill="#477AED" transform="translate(485,542)"/>
<path d="M0 0 C4.269375 -0.0825 8.53875 -0.165 12.9375 -0.25 C14.26515381 -0.28641602 15.59280762 -0.32283203 16.96069336 -0.36035156 C24.66219984 -0.43199886 31.75502955 0.00239047 37.61303711 5.51904297 C41.88534235 10.46592273 42.34781548 13.81487124 42.28125 20.171875 C41.74888414 25.52510946 39.5187482 28.74148044 35.35546875 32.19140625 C34.57816406 32.78824219 33.80085938 33.38507812 33 34 C33.721875 34.99902344 34.44375 35.99804688 35.1875 37.02734375 C36.12512346 38.33064036 37.06261676 39.63403061 38 40.9375 C38.47695313 41.59685547 38.95390625 42.25621094 39.4453125 42.93554688 C43 47.88671875 43 47.88671875 43 49 C38.78291509 49.77063481 35.18944117 50.01107182 31 49 C27.17811219 45.44996195 24.51755602 41.59008951 22 37 C22 36.34 22 35.68 22 35 C18.37 35 14.74 35 11 35 C11 39.62 11 44.24 11 49 C7.37 49 3.74 49 0 49 C0 32.83 0 16.66 0 0 Z " fill="#467AED" transform="translate(273,542)"/>
<path d="M0 0 C4.269375 -0.0825 8.53875 -0.165 12.9375 -0.25 C14.26515381 -0.28641602 15.59280762 -0.32283203 16.96069336 -0.36035156 C24.66219984 -0.43199886 31.75502955 0.00239047 37.61303711 5.51904297 C41.88442673 10.46486253 42.35222939 13.81491591 42.27734375 20.171875 C41.85213942 24.50776137 40.6784431 26.54621811 38 30 C33.3746936 33.6617009 29.71542276 35.14178351 23.890625 35.09765625 C23.13652344 35.09443359 22.38242187 35.09121094 21.60546875 35.08789062 C20.82816406 35.07951172 20.05085937 35.07113281 19.25 35.0625 C18.45722656 35.05798828 17.66445313 35.05347656 16.84765625 35.04882812 C14.89840492 35.03708565 12.94919262 35.01915146 11 35 C11 39.62 11 44.24 11 49 C7.37 49 3.74 49 0 49 C0 32.83 0 16.66 0 0 Z " fill="#467AED" transform="translate(629,542)"/>
<path d="M0 0 C3.96 0 7.92 0 12 0 C14.51426565 5.52924234 17.02259118 11.06112743 19.52563477 16.59545898 C20.37657671 18.4747637 21.22909003 20.35335778 22.08325195 22.23120117 C23.31623307 24.94260798 24.54339437 27.65658623 25.76953125 30.37109375 C26.14777542 31.19959335 26.52601959 32.02809296 26.91572571 32.88169861 C29.29610846 38.17027322 31.24734803 43.47054059 33 49 C29.04 49 25.08 49 21 49 C18 42.375 18 42.375 18 39 C10.08 39.33 2.16 39.66 -6 40 C-7.32 42.97 -8.64 45.94 -10 49 C-13.63 49 -17.26 49 -21 49 C-20.27823829 45.39119147 -19.71999643 43.03283266 -18.26586914 39.82397461 C-17.91202652 39.03643295 -17.5581839 38.2488913 -17.19361877 37.43748474 C-16.81132614 36.60088821 -16.42903351 35.76429169 -16.03515625 34.90234375 C-15.64178574 34.03106339 -15.24841522 33.15978302 -14.84312439 32.26210022 C-13.5877747 29.48500428 -12.32514788 26.7112841 -11.0625 23.9375 C-10.21633731 22.06726515 -9.37062912 20.19682459 -8.52539062 18.32617188 C-6.97409288 14.89844766 -5.42206976 11.471067 -3.86352539 8.04663086 C-3.55121475 7.35999863 -3.23890411 6.67336639 -2.91712952 5.96592712 C-1.98126616 3.95984279 -0.98997117 1.97994234 0 0 Z " fill="#4A7CED" transform="translate(703,542)"/>
<path d="M0 0 C3.63 0 7.26 0 11 0 C11 6.27 11 12.54 11 19 C18.26 19 25.52 19 33 19 C33 12.73 33 6.46 33 0 C36.96 0 40.92 0 45 0 C45 16.17 45 32.34 45 49 C41.04 49 37.08 49 33 49 C33 42.4 33 35.8 33 29 C25.74 29 18.48 29 11 29 C11 35.6 11 42.2 11 49 C7.37 49 3.74 49 0 49 C0 32.83 0 16.66 0 0 Z " fill="#4A7CED" transform="translate(391,542)"/>
<path d="M0 0 C1.86328125 1.046875 1.86328125 1.046875 2.72265625 2.953125 C2.9387367 6.1703228 1.42004909 8.3069636 -0.13671875 11.046875 C-0.68199219 10.8303125 -1.22726562 10.61375 -1.7890625 10.390625 C-7.28254313 8.36226292 -12.27256248 7.17897987 -18.13671875 8.046875 C-20.73684013 9.09516896 -20.73684013 9.09516896 -22.13671875 11.046875 C-22.13671875 12.366875 -22.13671875 13.686875 -22.13671875 15.046875 C-16.72101581 17.0751896 -11.34395558 19.02521105 -5.76171875 20.546875 C-1.10860742 21.91326484 2.39527562 23.62058792 4.98828125 27.90625 C6.54041564 31.70343591 5.97522975 35.16813699 4.86328125 39.046875 C2.39843016 43.35622876 -1.13969026 46.92347996 -5.90234375 48.609375 C-16.44138526 50.67296355 -25.67537211 48.77754832 -35.13671875 44.046875 C-34.14671875 41.076875 -33.15671875 38.106875 -32.13671875 35.046875 C-26.13671875 37.046875 -26.13671875 37.046875 -23.38671875 38.171875 C-18.9914753 39.35520978 -14.66337718 39.57667323 -10.13671875 39.046875 C-9.14671875 38.386875 -8.15671875 37.726875 -7.13671875 37.046875 C-6.88640898 34.46307323 -6.88640898 34.46307323 -7.13671875 32.046875 C-8.7602664 31.43881628 -10.38566492 30.83569962 -12.01171875 30.234375 C-13.01332031 29.863125 -14.01492188 29.491875 -15.046875 29.109375 C-17.83493622 28.15064851 -20.58797499 27.43117713 -23.44921875 26.734375 C-27.78852551 25.44019579 -30.42352346 23.72007493 -33.13671875 20.07421875 C-34.96557317 16.36650218 -34.9555913 13.04619006 -34.13671875 9.046875 C-31.85169246 3.64590377 -28.15060032 1.31790925 -22.98046875 -1.0390625 C-15.26492998 -3.5190571 -7.62622496 -2.18934688 0 0 Z " fill="#4A7CED" transform="translate(608.13671875,542.953125)"/>
<path d="M0 0 C1.91823075 1.3146176 3.45174043 2.67987575 5.0234375 4.38671875 C3.63011176 7.75392262 2.0445089 9.37267115 -0.9765625 11.38671875 C-1.5334375 11.09796875 -2.0903125 10.80921875 -2.6640625 10.51171875 C-3.4271875 10.14046875 -4.1903125 9.76921875 -4.9765625 9.38671875 C-5.7190625 9.01546875 -6.4615625 8.64421875 -7.2265625 8.26171875 C-12.4056613 6.61382368 -16.60925846 6.99931594 -21.7265625 8.44921875 C-25.62490691 10.77323176 -27.58800608 13.13067007 -28.9765625 17.38671875 C-29.7685204 22.00783391 -29.480651 26.02118651 -27.4140625 30.26171875 C-24.16943631 34.42149591 -21.19404864 35.94485895 -15.95703125 36.6640625 C-11.18442193 36.8921987 -8.04438606 35.75173245 -3.9765625 33.38671875 C-2.9865625 33.05671875 -1.9965625 32.72671875 -0.9765625 32.38671875 C1.2870939 33.7911771 3.044306 35.58351005 5.0234375 37.38671875 C3.208214 42.46934454 -0.94053905 44.41718378 -5.6015625 46.63671875 C-14.80668574 48.68230169 -22.05078712 47.82157214 -30.3359375 43.234375 C-35.7179819 39.46853624 -38.93912162 34.58959431 -40.9765625 28.38671875 C-41.86112348 20.67707147 -41.82788431 13.81364272 -37.453125 7.21484375 C-27.96010918 -4.53841393 -13.13142664 -7.26372936 0 0 Z " fill="#4A7DED" transform="translate(369.9765625,544.61328125)"/>
<path d="M0 0 C4.63611943 2.31805971 7.3245363 5.52383494 8.9375 10.34375 C9.89733557 15.37835921 9.34486966 19.25227276 6.8125 23.71875 C4.29105795 27.24455477 2.17791092 29.06362595 -2.0625 30.34375 C-7.21330821 31.09419888 -11.54820518 31.14259829 -16 28.21875 C-19.65670276 25.13125097 -21.61712366 22.03602496 -22.41015625 17.2421875 C-22.82191378 11.09749823 -21.00159541 7.0050129 -17.0625 2.34375 C-12.45090192 -1.87256825 -5.77221767 -1.83661471 0 0 Z " fill="#FAFBFE" transform="translate(237.0625,551.65625)"/>
<path d="M0 0 C17.36842105 0 17.36842105 0 23.875 5.375 C26.96834919 9.39534634 26.74429856 13.97410193 26.5546875 18.859375 C25.738104 23.48284779 23.82091128 26.30629899 20 29 C15 31 15 31 0 31 C0 20.77 0 10.54 0 0 Z " fill="#FAFBFE" transform="translate(496,551)"/>
<path d="M0 0 C3.63 0 7.26 0 11 0 C11 16.17 11 32.34 11 49 C7.37 49 3.74 49 0 49 C0 32.83 0 16.66 0 0 Z " fill="#4579ED" transform="translate(455,542)"/>
<path d="M0 0 C13.52506793 -0.40985054 13.52506793 -0.40985054 18 3 C20.06191987 6.09287981 20.29642269 6.55434219 19.9375 10 C19.88464844 10.680625 19.83179688 11.36125 19.77734375 12.0625 C18.56879983 15.07475018 16.93317773 15.72315848 14 17 C10.44921875 17.29296875 10.44921875 17.29296875 6.6875 17.1875 C3.3771875 17.0946875 3.3771875 17.0946875 0 17 C0 11.39 0 5.78 0 0 Z " fill="#F8FAFE" transform="translate(284,551)"/>
<path d="M0 0 C13.52506793 -0.40985054 13.52506793 -0.40985054 18 3 C20 6 20 6 19.8125 9.5 C19.0284084 12.87762534 18.73175021 14.03313985 16 16 C11.53794887 18.23102556 4.78092876 17.04346299 0 17 C0 11.39 0 5.78 0 0 Z " fill="#F9FAFE" transform="translate(640,551)"/>
<path d="M0 0 C4 1 4 1 5.18847656 2.73413086 C5.50268555 3.47026611 5.81689453 4.20640137 6.140625 4.96484375 C6.66269531 6.16463867 6.66269531 6.16463867 7.1953125 7.38867188 C7.54335938 8.22978516 7.89140625 9.07089844 8.25 9.9375 C8.61351562 10.77474609 8.97703125 11.61199219 9.3515625 12.47460938 C12 18.66259398 12 18.66259398 12 21 C11.01 20.67 10.02 20.34 9 20 C8.505 17.525 8.505 17.525 8 15 C2.06 15.495 2.06 15.495 -4 16 C-4.99 18.475 -4.99 18.475 -6 21 C-6.99 20.67 -7.98 20.34 -9 20 C-6.03 13.4 -3.06 6.8 0 0 Z " fill="#5685EE" transform="translate(399,613)"/>
<path d="M0 0 C0.99 0 1.98 0 3 0 C5.97 6.93 8.94 13.86 12 21 C11.01 21 10.02 21 9 21 C8.34 19.35 7.68 17.7 7 16 C3.04 15.67 -0.92 15.34 -5 15 C-5.66 16.98 -6.32 18.96 -7 21 C-7.66 21 -8.32 21 -9 21 C-6.76686274 13.55620912 -3.59727921 6.88023305 0 0 Z " fill="#5B89EE" transform="translate(505,613)"/>
<path d="M0 0 C4.06564732 1.35521577 5.1350785 4.04035171 7.1875 7.5625 C7.55552734 8.17802734 7.92355469 8.79355469 8.30273438 9.42773438 C9.209679 10.94716109 10.10588168 12.47299033 11 14 C11.54269531 13.07316406 12.08539063 12.14632812 12.64453125 11.19140625 C13.36672614 9.98149533 14.0894078 8.77187487 14.8125 7.5625 C15.16892578 6.95083984 15.52535156 6.33917969 15.89257812 5.70898438 C18.66015625 1.11328125 18.66015625 1.11328125 22 0 C22 6.93 22 13.86 22 21 C21.34 21 20.68 21 20 21 C19.67 16.05 19.34 11.1 19 6 C16.69 9.96 14.38 13.92 12 18 C6.95534238 16.31844746 5.56015467 11.49449376 3 7 C2.67 11.62 2.34 16.24 2 21 C1.34 21 0.68 21 0 21 C0 14.07 0 7.14 0 0 Z " fill="#5D8AEF" transform="translate(349,613)"/>
<path d="M0 0 C3.0247891 2.55466059 4.20620611 5.37016273 5.6875 9 C6.34298828 10.5778125 6.34298828 10.5778125 7.01171875 12.1875 C8 15 8 15 8 18 C3.05 18 -1.9 18 -7 18 C-5.02989474 11.79416842 -2.74844552 5.90148454 0 0 Z " fill="#F5F7FD" transform="translate(708,554)"/>
<path d="M0 0 C2.5 1 2.5 1 4 2 C4 2.66 4 3.32 4 4 C3.484375 3.835 2.96875 3.67 2.4375 3.5 C-1.71553199 2.648096 -5.43725836 2.39894552 -9.4375 3.9375 C-11.65581174 6.8656715 -11.56436303 9.30050723 -11.37109375 12.90234375 C-11.1300161 15.12132458 -11.1300161 15.12132458 -9.5625 17.0625 C-5.72655847 18.46589324 -2.03929179 18.23303606 2 18 C2 15.36 2 12.72 2 10 C2.66 10 3.32 10 4 10 C4 12.97 4 15.94 4 19 C-0.21191276 21.10595638 -3.40012747 21.74987982 -8 21 C-11.4431146 18.90419111 -13.7468218 16.8734599 -15 13 C-15.45972376 9.97895814 -15.60025379 7.96174492 -13.94921875 5.31640625 C-9.69409314 0.08222519 -6.56562631 -0.55794848 0 0 Z " fill="#5584EE" transform="translate(549,613)"/>
<path d="M0 0 C4.62 0 9.24 0 14 0 C14 0.66 14 1.32 14 2 C10.04 2 6.08 2 2 2 C2 4.31 2 6.62 2 9 C5.63 9 9.26 9 13 9 C13 9.66 13 10.32 13 11 C9.37 11 5.74 11 2 11 C2 13.64 2 16.28 2 19 C6.29 19 10.58 19 15 19 C15 19.66 15 20.32 15 21 C10.05 21 5.1 21 0 21 C0 14.07 0 7.14 0 0 Z " fill="#4F80ED" transform="translate(575,613)"/>
<path d="M0 0 C0.66 0.33 1.32 0.66 2 1 C2 1.66 2 2.32 2 3 C-1.3 3 -4.6 3 -8 3 C-8.33 4.32 -8.66 5.64 -9 7 C-8.30132812 7.26554688 -7.60265625 7.53109375 -6.8828125 7.8046875 C-5.51769531 8.33449219 -5.51769531 8.33449219 -4.125 8.875 C-2.76761719 9.39707031 -2.76761719 9.39707031 -1.3828125 9.9296875 C1 11 1 11 3 13 C3.3597605 15.80613194 3.4961552 17.34263349 1.76171875 19.640625 C-0.4697463 21.36246499 -1.70919936 21.37296735 -4.5 21.3125 C-5.2734375 21.30863281 -6.046875 21.30476562 -6.84375 21.30078125 C-9 21 -9 21 -12 19 C-12 18.34 -12 17.68 -12 17 C-11.01 17.33 -10.02 17.66 -9 18 C-7.60560336 18.06665376 -6.20830125 18.08538199 -4.8125 18.0625 C-3.554375 18.041875 -2.29625 18.02125 -1 18 C-0.67 16.68 -0.34 15.36 0 14 C-0.69867188 13.73445312 -1.39734375 13.46890625 -2.1171875 13.1953125 C-3.02726562 12.84210937 -3.93734375 12.48890625 -4.875 12.125 C-5.77992188 11.77695312 -6.68484375 11.42890625 -7.6171875 11.0703125 C-10 10 -10 10 -12 8 C-12.375 5.5625 -12.375 5.5625 -12 3 C-8.70534067 -0.9810467 -4.76547403 -0.30744994 0 0 Z " fill="#5685EE" transform="translate(475,613)"/>
<path d="M0 0 C0.66 0.33 1.32 0.66 2 1 C2 1.66 2 2.32 2 3 C-1.3 3 -4.6 3 -8 3 C-8.33 4.32 -8.66 5.64 -9 7 C-8.30132812 7.26554688 -7.60265625 7.53109375 -6.8828125 7.8046875 C-5.51769531 8.33449219 -5.51769531 8.33449219 -4.125 8.875 C-2.76761719 9.39707031 -2.76761719 9.39707031 -1.3828125 9.9296875 C1 11 1 11 3 13 C3.3597605 15.80613194 3.4961552 17.34263349 1.76171875 19.640625 C-0.4697463 21.36246499 -1.70919936 21.37296735 -4.5 21.3125 C-5.2734375 21.30863281 -6.046875 21.30476562 -6.84375 21.30078125 C-9 21 -9 21 -12 19 C-12 18.34 -12 17.68 -12 17 C-11.01 17.33 -10.02 17.66 -9 18 C-7.60560336 18.06665376 -6.20830125 18.08538199 -4.8125 18.0625 C-3.554375 18.041875 -2.29625 18.02125 -1 18 C-0.67 16.68 -0.34 15.36 0 14 C-0.69867188 13.73445312 -1.39734375 13.46890625 -2.1171875 13.1953125 C-3.02726562 12.84210937 -3.93734375 12.48890625 -4.875 12.125 C-5.77992188 11.77695312 -6.68484375 11.42890625 -7.6171875 11.0703125 C-10 10 -10 10 -12 8 C-12.375 5.5625 -12.375 5.5625 -12 3 C-8.70534067 -0.9810467 -4.76547403 -0.30744994 0 0 Z " fill="#5685EE" transform="translate(441,613)"/>
<path d="M0 0 C2.97246802 2.54782974 4.41535288 5.45340883 6 9 C6 9.66 6 10.32 6 11 C2.7 11 -0.6 11 -4 11 C-1.125 2.25 -1.125 2.25 0 0 Z " fill="#E7EEFC" transform="translate(400,616)"/>
<path d="M0 0 C2.96052484 3.36423277 3.92289822 6.69159287 5 11 C2.03 11 -0.94 11 -4 11 C-3.48964169 6.6109185 -2.47785723 3.66291938 0 0 Z " fill="#EAF0FC" transform="translate(506,616)"/>
<path d="M0 0 C2.5 1 2.5 1 4 2 C4 2.66 4 3.32 4 4 C3.484375 3.835 2.96875 3.67 2.4375 3.5 C-1.71210538 2.6487989 -5.44800043 2.3056844 -9.375 4.0625 C-11.71005127 6.84659959 -11.73214392 9.45090698 -12 13 C-12.99 13 -13.98 13 -15 13 C-15.34751969 10.08083462 -15.53280018 7.86804524 -13.95703125 5.30078125 C-9.66396352 0.10125934 -6.57846444 -0.55903947 0 0 Z " fill="#5B88EE" transform="translate(549,613)"/>
<path d="M0 0 C0.99 0.33 1.98 0.66 3 1 C4.1875 3.5625 4.1875 3.5625 5 6 C4.01 6.495 4.01 6.495 3 7 C2.52998967 10.27555608 2.52998967 10.27555608 2.375 14.0625 C2.30023438 15.35285156 2.22546875 16.64320313 2.1484375 17.97265625 C2.09945313 18.97167969 2.05046875 19.97070312 2 21 C1.34 21 0.68 21 0 21 C0 14.07 0 7.14 0 0 Z " fill="#497CED" transform="translate(349,613)"/>
<path d="M0 0 C1.4536406 0.02642983 2.90702568 0.07390931 4.359375 0.140625 C5.47699219 0.16769531 5.47699219 0.16769531 6.6171875 0.1953125 C8.44847201 0.24226851 10.27909149 0.31400848 12.109375 0.390625 C12.109375 0.720625 12.109375 1.050625 12.109375 1.390625 C2.209375 2.875625 2.209375 2.875625 -7.890625 4.390625 C-3.890625 0.390625 -3.890625 0.390625 0 0 Z " fill="#D3DFFA" transform="translate(632.890625,334.609375)"/>
<path d="M0 0 C0.99 0.33 1.98 0.66 3 1 C9.08568662 1.23294845 9.08568662 1.23294845 15 0 C14.0625 2 14.0625 2 12 4 C7.32120751 4.74930382 3.97500337 4.65000225 0 2 C0 1.34 0 0.68 0 0 Z " fill="#5D8AEF" transform="translate(463,630)"/>
<path d="M0 0 C0.99 0.33 1.98 0.66 3 1 C9.08568662 1.23294845 9.08568662 1.23294845 15 0 C14.0625 2 14.0625 2 12 4 C7.32120751 4.74930382 3.97500337 4.65000225 0 2 C0 1.34 0 0.68 0 0 Z " fill="#5D8AEF" transform="translate(429,630)"/>
<path d="M0 0 C3 1 3 1 3.94921875 2.84765625 C4.31466797 3.94400391 4.31466797 3.94400391 4.6875 5.0625 C5.06455078 6.16271484 5.06455078 6.16271484 5.44921875 7.28515625 C5.63097656 7.85105469 5.81273437 8.41695312 6 9 C5.01 9 4.02 9 3 9 C2.34 7.35 1.68 5.7 1 4 C-2.96 3.67 -6.92 3.34 -11 3 C-11 2.67 -11 2.34 -11 2 C-7.37 2 -3.74 2 0 2 C0 1.34 0 0.68 0 0 Z " fill="#4F80ED" transform="translate(511,625)"/>
<path d="M0 0 C4.95 0 9.9 0 15 0 C15.33 0.99 15.66 1.98 16 3 C10.72 2.34 5.44 1.68 0 1 C0 0.67 0 0.34 0 0 Z " fill="#D7E2FA" transform="translate(308,364)"/>
<path d="M0 0 C0.66 0 1.32 0 2 0 C1.34 3.3 0.68 6.6 0 10 C-0.99 10 -1.98 10 -3 10 C-3.2295711 6.63295715 -3.33943529 4.58629732 -1.625 1.625 C-1.08875 1.08875 -0.5525 0.5525 0 0 Z " fill="#7299F0" transform="translate(537,616)"/>
<path d="M0 0 C2.6855594 2.6855594 3.06049974 5.37621328 4 9 C3.01 8.67 2.02 8.34 1 8 C-0.25 5.0625 -0.25 5.0625 -1 2 C-0.67 1.34 -0.34 0.68 0 0 Z " fill="#5A88EE" transform="translate(407,625)"/>
<path d="M0 0 C0.33 0 0.66 0 1 0 C1.28875 1.093125 1.5775 2.18625 1.875 3.3125 C2.81893204 7.04013845 2.81893204 7.04013845 5 10 C4.01 10 3.02 10 2 10 C-0.4294516 6.3558226 -0.16179575 4.28758728 0 0 Z " fill="#4C7EED" transform="translate(535,621)"/>
</svg>
