<svg xmlns="http://www.w3.org/2000/svg" viewBox="0 0 480 480" fill="none">
  <!-- Left leaf -->
  <path d="M200 265C190 220 162 180 128 155C108 142 84 133 58 132C40 133 26 138 16 146C12 150 11 157 16 160C30 170 38 186 47 203C58 225 72 243 92 255C113 267 138 270 160 264C175 258 188 250 200 240V265Z" fill="#5B8DEF"/>
  <path d="M200 260C196 218 184 185 166 158C150 135 128 118 102 108C82 100 62 98 42 102" fill="none" stroke="white" stroke-width="7" stroke-linecap="round"/>
  <!-- Right leaf -->
  <path d="M280 265C290 220 318 180 352 155C372 142 396 133 422 132C440 133 454 138 464 146C468 150 469 157 464 160C450 170 442 186 433 203C422 225 408 243 388 255C367 267 342 270 320 264C305 258 292 250 280 240V265Z" fill="#5B8DEF"/>
  <path d="M280 260C284 218 296 185 314 158C330 135 352 118 378 108C398 100 418 98 438 102" fill="none" stroke="white" stroke-width="7" stroke-linecap="round"/>
  <!-- Stems -->
  <path d="M235 320C236 295 238 275 240 258C242 275 244 295 245 320" fill="none" stroke="#5B8DEF" stroke-width="3.5" stroke-linecap="round"/>
  <!-- ORCHID SPA -->
  <text x="240" y="365" text-anchor="middle" font-family="'Segoe UI', 'Helvetica Neue', Arial, sans-serif" font-size="44" font-weight="500" letter-spacing="8" fill="#5B8DEF">ORCHID SPA</text>
  <!-- MASSAGE -->
  <text x="240" y="392" text-anchor="middle" font-family="'Segoe UI', 'Helvetica Neue', Arial, sans-serif" font-size="17" font-weight="400" letter-spacing="10" fill="#5B8DEF" opacity="0.7">MASSAGE</text>
</svg>
